<?xml version="1.0" encoding="iso-8859-1"?>
<!-- Generator: Adobe Illustrator 19.0.0, SVG Export Plug-In . SVG Version: 6.00 Build 0)  -->
<svg version="1.1" id="Capa_1" xmlns="http://www.w3.org/2000/svg" xmlns:xlink="http://www.w3.org/1999/xlink" x="0px" y="0px"
	 viewBox="0 0 384.97 384.97" style="enable-background:new 0 0 384.97 384.97;" xml:space="preserve">
<g>
	<g id="Check_Square">
		<path d="M360.909,0H24.061C10.767,0,0,10.767,0,24.061v336.848c0,13.293,10.767,24.061,24.061,24.061h336.848
			c13.281,0,24.061-10.767,24.061-24.061V24.061C384.97,10.767,374.191,0,360.909,0z M360.909,360.909H24.061V24.061h336.848
			V360.909z"/>
		<path d="M147.985,271.969c4.596,4.559,12.56,4.62,17.191,0l132.321-131.118c4.74-4.692,4.74-12.319,0-17.011
			c-4.74-4.704-12.439-4.704-17.179,0L156.526,246.477l-51.502-50.479c-4.74-4.704-12.439-4.704-17.179,0
			c-4.752,4.704-4.752,12.319,0,17.011L147.985,271.969z"/>
	</g>
	<g>
	</g>
	<g>
	</g>
	<g>
	</g>
	<g>
	</g>
	<g>
	</g>
	<g>
	</g>
</g>
<g>
</g>
<g>
</g>
<g>
</g>
<g>
</g>
<g>
</g>
<g>
</g>
<g>
</g>
<g>
</g>
<g>
</g>
<g>
</g>
<g>
</g>
<g>
</g>
<g>
</g>
<g>
</g>
<g>
</g>
</svg>
