<?xml version="1.0" encoding="iso-8859-1"?>
<!-- Generator: Adobe Illustrator 19.0.0, SVG Export Plug-In . SVG Version: 6.00 Build 0)  -->
<svg version="1.1" id="Capa_1" xmlns="http://www.w3.org/2000/svg" xmlns:xlink="http://www.w3.org/1999/xlink" x="0px" y="0px"
	 viewBox="0 0 512 512" style="enable-background:new 0 0 512 512;" xml:space="preserve">
<rect x="241" y="377" style="fill:#0C4EAD;" width="30" height="120"/>
<rect x="256" y="377" style="fill:#073E89;" width="15" height="120"/>
<rect x="201" style="fill:#FDD0D0;" width="30" height="75"/>
<rect x="281" style="fill:#F7BEBE;" width="30" height="75"/>
<path style="fill:#FDD0D0;" d="M348.776,225.457C340.382,198.877,325.71,174.71,306,155l0,0l30-100H176l30,100
	c-19.71,19.71-34.382,43.877-42.776,70.457L116,375l0,0c91.503,26.144,188.497,26.144,280,0l0,0L348.776,225.457z"/>
<g>
	<path style="fill:#F7BEBE;" d="M348.776,225.457C340.382,198.877,325.71,174.71,306,155l30-100h-80v339.607
		c47.124,0,94.249-6.536,140-19.607l0,0L348.776,225.457z"/>
	<polygon style="fill:#F7BEBE;" points="336,55 176,55 206,155 306,155 	"/>
</g>
<rect x="186" y="482" style="fill:#0E61C4;" width="140" height="30"/>
<polygon style="fill:#FAAAAA;" points="256,55 256,155 306,155 336,55 "/>
<rect x="256" y="482" style="fill:#0C4EAD;" width="70" height="30"/>
<g>
</g>
<g>
</g>
<g>
</g>
<g>
</g>
<g>
</g>
<g>
</g>
<g>
</g>
<g>
</g>
<g>
</g>
<g>
</g>
<g>
</g>
<g>
</g>
<g>
</g>
<g>
</g>
<g>
</g>
</svg>
